# xmcd CD database file
#
# Track frame offsets:
#        150
#        14085
#        33485
#        47820
#        64475
#        81290
#        98189
#        118327
#        128883
#        142389
#
# Disc length: 2109 seconds
#
# Revision: 0
# Processed by: cddbd v1.5.2PL0 Copyright (c) Steve Scherf et al.
# Submitted via: CUERipper 2.1.5
#
DISCID=9e083b0a
DTITLE=Blue Bayou - Somewhere Between
DYEAR=2009
DGENRE=Country
TTITLE0=Coat Of Many Colours
TTITLE1=Don't Close Your Eyes
TTITLE2=Annie's Song
TTITLE3=The Gambler
TTITLE4=Daddy's Hands
TTITLE5=If Tomorrow Never Comes
TTITLE6=Wind Beneath My Wings
TTITLE7=I Won't Come In While He's There
TTITLE8=Make The World Go Away
TTITLE9=Somewhere Between
EXTD=
EXTT0=
EXTT1=
EXTT2=
EXTT3=
EXTT4=
EXTT5=
EXTT6=
EXTT7=
EXTT8=
EXTT9=
PLAYORDER=
